<svg width="28" height="28" viewBox="0 0 28 28" fill="none" xmlns="http://www.w3.org/2000/svg">
<path d="M28 14C28 21.732 21.732 28 14 28C6.26801 28 0 21.732 0 14C0 6.26801 6.26801 0 14 0C21.732 0 28 6.26801 28 14Z" fill="url(#paint0_linear_51_1429)"/>
<path fill-rule="evenodd" clip-rule="evenodd" d="M17.0171 23.21C17.9797 22.7732 19.0395 22.2348 20.0663 21.5984C19.0742 22.7405 18.011 23.0432 17.0171 23.21ZM14.6617 25.2277C14.5646 25.2277 13.7355 25.2277 13.7355 24.925C13.7355 24.7581 14.0009 24.218 14.2333 24.1526C14.7294 23.9497 15.7908 23.6796 15.8567 23.6796C15.9556 23.6796 16.8194 23.7828 16.9165 23.7828C16.9824 23.7828 17.6138 23.7467 17.9797 23.6487C18.4081 23.5455 18.9407 23.346 19.4367 23.0432C19.9345 22.7405 20.663 22.1006 20.9943 21.5623C21.192 21.2595 21.2926 20.857 21.5267 20.587C21.8233 20.1862 22.387 19.8474 22.8501 19.4122C23.315 18.9392 23.7815 18.4369 24.2099 17.9003C23.315 22.1351 17.8792 25.2277 14.6617 25.2277ZM16.6875 2.20299C18.3769 2.5728 20.3004 3.309 21.9551 4.99294C22.4876 5.5296 22.9525 6.2709 23.1502 6.84024C23.2474 7.07417 23.2474 7.44571 23.4156 7.67964C23.681 8.08558 24.1441 8.41926 24.4753 8.85788C24.9072 9.32745 25.1709 9.83315 25.405 10.3698C25.5022 10.5367 25.5369 10.7723 25.6357 10.9753C25.7675 11.2419 26 12.5199 26 12.9929C26 13.9682 25.6704 15.1774 25.2368 16.1183C25.2368 16.1527 25.2732 16.1527 25.2732 16.2524V17.0918C24.9073 22.2709 18.7741 26 14.927 26C14.4639 26 13.1388 25.9329 13.1388 24.992C13.1388 24.8888 13.2065 24.5878 13.2724 24.3522C12.5404 24.4554 11.1146 24.7237 10.2856 24.7237C9.65942 24.7237 6.77326 24.691 6.77326 23.1103C6.77326 21.6293 9.35939 21.5296 9.85719 21.5296C11.2482 21.5296 12.7069 21.9321 14.1326 22.6046C13.8985 22.6734 13.4701 22.8076 13.4042 22.8076C13.3036 22.8076 13.1718 22.7044 13.0382 22.6734C12.112 22.3346 11.0488 22.135 10.0879 22.135C9.5259 22.135 9.42528 22.1006 8.76271 22.2709C8.6968 22.2709 7.53643 22.5737 7.53643 23.0432C7.53643 23.3769 8.46441 23.5799 8.66214 23.6126C9.05934 23.6796 9.88841 23.7467 9.95432 23.7467C15.8568 23.7467 25.0078 18.7723 25.0078 12.8226C25.0078 11.7149 24.51 10.1359 23.5127 9.12449C23.4468 9.5631 23.3497 10.0327 23.1815 10.5057C23.0843 10.8084 22.819 11.3451 22.819 11.4122C22.819 11.4122 24.4753 13.2595 24.4753 13.6655C24.4753 13.9011 24.1129 14.94 24.1129 14.9744C23.7816 14.0679 23.315 13.1597 22.3871 12.2533C22.2552 12.3874 22.1234 12.587 21.9899 12.7573C21.8234 12.9929 21.6239 13.2286 21.4261 13.4625C20.9943 13.9682 20.0005 14.8403 20.0005 14.94C20.0005 14.94 21.192 16.1527 21.5927 17.5631C21.6586 17.7661 21.7575 18.1668 21.7575 18.2356C21.7575 18.4369 21.0949 18.8755 21.0949 18.9082C21.0602 17.7661 20.5971 16.5552 19.3691 15.413C17.9451 16.4881 16.4534 17.3636 15.0277 18.0671C15.8897 18.8084 16.3875 19.8835 16.3875 20.6558C16.3875 21.0256 16.1881 21.834 16.0216 21.9321C15.8221 22.068 15.5931 22.135 15.359 22.2038C15.6243 21.865 15.8567 21.0927 15.8567 20.759C15.8567 20.1535 15.4595 19.2109 14.7952 18.7052C14.6304 18.6055 14.3981 18.3698 14.3322 18.3698C14.2333 18.3698 13.4042 18.7397 12.9411 18.9082C12.4086 19.1112 11.8467 19.278 11.283 19.4448C9.59185 19.9505 7.99953 20.2533 6.37606 20.2533C5.74644 20.2533 2.99211 20.1862 2.99211 18.6725C2.99211 16.421 8.10188 16.2181 8.79394 16.2181C10.3203 16.2181 11.7808 16.3883 13.3383 17.0918C13.0383 17.1916 12.4745 17.4272 12.4086 17.4272C12.3098 17.4272 10.5857 16.925 9.02811 16.925C8.33085 16.925 7.47055 16.9938 6.80798 17.1245C6.2755 17.2277 5.74647 17.3636 5.28163 17.5631C5.11512 17.5975 3.88883 18.1359 3.88883 18.6055C3.88883 18.6726 4.08658 18.8084 4.22013 18.8755C4.88444 19.2109 5.48106 19.1782 6.14363 19.1782C12.4086 19.1782 22.0211 14.1677 22.5865 8.95767V8.11826C22.2864 4.72287 17.116 2.53668 14.5958 2.53668C14.5299 2.53668 14.1014 2.57277 13.8326 2.63641C14.0008 2.70522 14.1985 2.70523 14.3668 2.77232C14.4986 2.80844 14.6617 2.87555 14.8299 2.93919C15.0953 3.04239 15.5584 3.27802 15.8567 3.54463C16.0874 3.7476 16.2192 4.05031 16.4534 4.21716C16.6199 4.38745 16.9512 4.35306 17.2166 4.45626C18.0769 4.72287 19.1401 5.12535 20.0351 5.52957C20.3976 5.72909 20.8607 5.93206 21.2614 6.16771C21.395 6.27092 21.4921 6.47046 21.5927 6.63731C21.7574 6.90736 21.9552 7.34594 22.0211 7.71576C20.3005 6.40163 18.5747 5.7291 16.8506 5.15976H16.7535C16.8194 6.06795 16.4534 6.97444 15.822 7.88263C17.7143 8.38833 19.7004 9.1245 21.6586 10.5057C21.558 10.7396 21.4262 11.008 21.2614 11.2419C20.4323 10.6364 19.5373 10.1669 18.7082 9.76436C18.5087 9.66632 15.7249 8.62224 15.293 8.62224C15.1924 8.62224 14.5299 9.29476 14.1673 9.59749C13.2724 10.3354 12.3773 10.9082 11.4806 11.4448C12.9411 12.9484 15.822 12.7573 18.7394 13.9321C18.5746 14.0989 18.2087 14.4378 18.1115 14.4378C18.4758 14.6081 18.0456 14.4378 18.1115 14.4378C16.5 14 18.1115 14.4378 10.1884 12.1535C10.0219 12.1535 8.10187 12.9929 7.63356 13.1254C6.27547 13.5296 4.78381 14.0318 3.3945 14.0318C2.92619 14.0318 2 14.0009 2 13.2286C2 11.7149 7.27106 11.3451 7.63356 11.3451H8.79394C7.96486 11.6805 6.97275 12.0503 6.17835 12.2533C5.41518 12.4562 4.62078 12.587 3.88883 12.8226C3.75527 12.857 3.62345 12.9568 3.49163 13.0256C3.49163 13.0256 3.4604 13.06 3.55753 13.06C3.62344 13.06 4.71794 12.8897 5.31286 12.7573C8.33086 12.0176 11.5778 10.8084 14.5645 8.01848C15.293 7.30981 15.8221 6.43778 15.9903 5.66547V4.99294C15.8897 4.25331 14.8299 3.48099 14.1673 3.27802C13.7355 3.14214 12.9063 2.9753 12.8092 2.9753C12.641 2.9753 12.4086 3.07506 12.2438 3.34511C13.3036 3.58076 14.5298 3.34508 15.4595 4.69017C15.4595 4.69017 15.4925 4.72287 15.4595 4.78995C15.1924 4.69019 11.9438 3.91444 11.4148 3.91444C11.217 3.91444 9.65944 5.02562 9.29346 5.25955C8.29961 5.86501 7.27108 6.43777 6.27549 6.94003L9.69066 6.97441C11.1806 7.07417 12.8751 7.27718 14.398 7.57991C14.3321 7.61259 13.7354 8.25243 13.6036 8.25243C13.5377 8.25243 12.4745 8.04945 11.9438 7.98236C10.9829 7.84648 9.98898 7.81553 8.99339 7.74673L4.68668 7.84651C4.45252 7.81555 3.98945 7.78285 3.98945 7.37692C3.98945 7.07419 4.35193 6.87468 4.62077 6.77148C4.81851 6.70439 5.04918 6.57367 5.24691 6.50487C7.36991 5.5984 9.5571 4.38744 11.7148 3.00795C11.6489 2.97527 11.5119 2.9753 11.446 2.9753C11.3489 2.9753 11.0835 3.00796 10.8858 3.07504C10.917 3.11116 10.9516 3.11115 10.9828 3.11115C10.6862 3.278 10.1885 3.61172 10.0879 3.61172C9.85718 3.61172 9.52589 3.30896 9.52589 3.11115C9.52589 2.50569 10.8857 2.46959 10.9828 2.46959C12.3409 2.43691 12.4433 2.50571 12.5404 2.50571C12.6063 2.50571 13.1718 2.20298 13.5378 2.1359C14.0668 2.00002 14.3322 2 14.8299 2C15.3937 2 16.0562 2.0671 16.6875 2.20299Z" fill="#17171E"/>
<path d="M9.37413 13.0419L9.38228 14.6058L10.9324 14.5989L10.9384 13.0467L9.37413 13.0419Z" fill="black"/>
<defs>
<linearGradient id="paint0_linear_51_1429" x1="14" y1="0" x2="14" y2="20.5" gradientUnits="userSpaceOnUse">
<stop stop-color="#FCBF00"/>
<stop offset="1" stop-color="#F55B3B"/>
</linearGradient>
</defs>
</svg>
